<?xml version="1.0" standalone="no"?>
<!DOCTYPE svg PUBLIC "-//W3C//DTD SVG 20010904//EN"
 "http://www.w3.org/TR/2001/REC-SVG-20010904/DTD/svg10.dtd">
<svg version="1.0" xmlns="http://www.w3.org/2000/svg"
 width="944.000000pt" height="944.000000pt" viewBox="0 0 944.000000 944.000000"
 preserveAspectRatio="xMidYMid meet">
<g transform="translate(0.000000,944.000000) scale(0.100000,-0.100000)"
fill="#000000" stroke="none">
<path d="M4475 9424 c-1055 -68 -1977 -432 -2785 -1102 -148 -123 -449 -424
-572 -572 -621 -750 -978 -1594 -1084 -2565 -13 -117 -18 -243 -18 -470 0
-341 13 -498 64 -800 215 -1266 956 -2405 2030 -3122 646 -431 1343 -680 2150
-770 215 -23 713 -23 930 0 536 59 983 178 1448 383 935 414 1714 1130 2217
2038 307 552 487 1133 562 1806 24 216 24 714 0 930 -63 566 -188 1025 -416
1520 -317 689 -836 1327 -1456 1792 -684 512 -1473 819 -2345 913 -139 15
-599 27 -725 19z m-805 -2439 c297 -28 403 -49 544 -103 171 -67 306 -173 400
-316 30 -45 89 -157 131 -251 120 -266 154 -342 210 -465 29 -63 94 -207 145
-320 115 -255 307 -680 370 -820 26 -58 100 -222 164 -365 225 -503 271 -581
361 -625 60 -29 180 -49 296 -50 l95 0 43 243 c77 436 99 556 191 1077 50 283
97 551 105 595 7 44 20 118 29 165 29 161 167 945 191 1085 14 77 25 146 25
153 0 9 121 12 570 12 l570 0 0 -22 c0 -13 -9 -72 -21 -133 -17 -97 -177 -996
-215 -1212 -8 -46 -21 -121 -29 -168 -8 -47 -22 -122 -30 -167 -7 -46 -39
-225 -70 -398 -31 -173 -69 -389 -85 -480 -16 -91 -70 -397 -120 -680 -86
-487 -101 -571 -135 -765 -29 -168 -76 -432 -86 -481 l-10 -51 -732 -7 c-698
-7 -740 -6 -911 13 -98 12 -216 30 -263 41 -169 40 -319 119 -424 222 -108
106 -158 193 -314 538 -24 52 -68 149 -98 215 -30 66 -77 170 -105 230 -27 61
-100 220 -162 355 -62 135 -132 288 -155 340 -24 52 -71 156 -105 230 -34 74
-81 178 -105 230 -23 52 -73 160 -110 240 -37 80 -79 174 -94 210 -76 178
-146 305 -195 356 -76 77 -134 96 -316 102 l-145 4 -22 -123 c-12 -68 -72
-407 -133 -754 -61 -346 -115 -652 -120 -680 -5 -27 -15 -88 -24 -135 -31
-175 -199 -1125 -243 -1377 l-47 -263 -568 0 c-514 0 -568 2 -568 16 0 9 12
80 26 158 14 77 32 177 39 221 7 44 23 134 35 200 12 66 25 143 30 170 5 28
50 282 100 565 50 283 98 551 105 595 8 44 20 118 29 165 28 155 126 712 156
880 16 91 76 435 135 765 58 330 112 636 120 680 8 44 17 97 21 118 l7 37 681
0 c526 0 716 -3 836 -15z"/>
</g>
</svg>
